<?xml version="1.0" standalone="no"?>
<!DOCTYPE svg PUBLIC "-//W3C//DTD SVG 20010904//EN"
 "http://www.w3.org/TR/2001/REC-SVG-20010904/DTD/svg10.dtd">
<svg version="1.0" xmlns="http://www.w3.org/2000/svg"
 width="900.000000pt" height="900.000000pt" viewBox="0 0 900.000000 900.000000"
 preserveAspectRatio="xMidYMid meet">

<g transform="translate(0.000000,900.000000) scale(0.100000,-0.100000)"
fill="#000000" stroke="none">
<path d="M1720 5525 c0 -168 -2 -305 -5 -305 -3 0 -24 12 -48 27 -226 142
-516 163 -754 53 -101 -47 -152 -82 -227 -156 -267 -265 -310 -680 -103 -990
105 -158 235 -256 422 -320 73 -25 94 -27 230 -28 119 0 163 3 210 18 80 25
176 68 230 105 l45 30 0 -73 c0 -58 3 -75 16 -80 20 -8 258 -8 278 0 14 6 16
104 16 1015 l0 1009 -155 0 -155 0 0 -305z m-330 -481 c196 -78 313 -244 313
-444 0 -180 -104 -345 -267 -421 -398 -186 -804 227 -617 627 53 114 156 200
291 246 69 23 212 19 280 -8z"/>
<path d="M2336 5809 c-29 -23 -30 -25 -82 -168 -20 -55 -30 -99 -25 -104 5 -5
67 -7 139 -5 170 4 164 -1 233 193 16 44 29 86 29 93 0 9 -33 12 -134 12 -121
0 -136 -2 -160 -21z"/>
<path d="M4464 5816 c-36 -25 -45 -65 -42 -176 l3 -105 107 -3 c181 -5 211 23
206 195 l-3 98 -125 3 c-98 2 -130 -1 -146 -12z"/>
<path d="M5107 5823 c-4 -3 -7 -116 -7 -250 l0 -243 -79 0 c-55 0 -82 -4 -90
-14 -8 -9 -11 -60 -9 -157 l3 -144 87 -3 86 -3 5 -397 c3 -262 9 -414 17 -447
57 -236 258 -382 493 -361 111 10 107 5 107 161 0 74 -3 135 -7 136 -139 9
-181 25 -236 89 -19 23 -40 61 -46 85 -7 28 -11 170 -11 389 l0 345 148 3 147
3 0 155 0 155 -147 3 -148 3 0 249 0 250 -153 0 c-85 0 -157 -3 -160 -7z"/>
<path d="M3261 5350 c-98 -24 -242 -97 -318 -162 -122 -103 -210 -241 -255
-400 -28 -99 -30 -282 -4 -388 66 -271 272 -486 546 -572 64 -20 95 -23 220
-23 111 1 159 5 204 19 74 23 155 59 208 92 l41 26 -6 -50 c-16 -132 -131
-283 -262 -343 -160 -72 -365 -47 -487 60 -20 17 -39 31 -44 31 -16 0 -214
-205 -214 -221 0 -31 146 -141 243 -183 103 -45 174 -58 308 -58 141 0 208 14
325 67 234 106 395 304 444 547 19 92 20 134 18 825 l-3 728 -150 0 -150 0 -3
-63 -3 -63 -27 20 c-71 50 -168 91 -272 116 -90 20 -265 18 -359 -5z m303
-295 c68 -18 103 -36 166 -85 99 -78 153 -166 176 -290 14 -71 14 -89 0 -161
-58 -307 -382 -472 -663 -338 -201 96 -308 340 -243 551 75 243 323 385 564
323z"/>
<path d="M7135 5351 c-137 -35 -225 -81 -339 -175 -100 -84 -205 -255 -240
-392 -67 -262 9 -554 194 -743 102 -104 223 -178 360 -217 91 -26 320 -27 405
-1 185 55 334 156 430 292 108 151 155 296 155 475 0 369 -252 681 -617 764
-96 21 -257 20 -348 -3z m335 -308 c77 -32 112 -54 167 -106 94 -89 143 -205
143 -337 -1 -133 -42 -234 -136 -328 -183 -184 -474 -185 -654 -3 -252 255
-151 669 190 780 81 26 219 23 290 -6z"/>
<path d="M5915 5338 c-3 -7 -4 -355 -3 -773 l3 -760 149 -3 c113 -2 151 1 158
10 4 7 8 243 8 523 0 475 2 513 19 550 38 82 120 135 209 135 26 0 53 5 60 12
17 17 17 279 0 296 -25 25 -184 4 -256 -34 -15 -8 -28 -10 -29 -6 -1 4 -4 19
-7 35 l-6 27 -151 0 c-110 0 -151 -3 -154 -12z"/>
<path d="M2215 5318 c-3 -7 -4 -350 -3 -763 l3 -750 155 0 155 0 0 760 0 760
-153 3 c-116 2 -154 0 -157 -10z"/>
<path d="M4427 5324 c-4 -4 -7 -349 -7 -766 l0 -758 155 0 155 0 -2 763 -3
762 -146 3 c-80 1 -148 -1 -152 -4z"/>
<path d="M8219 4064 c-5 -15 -8 -29 -5 -31 2 -2 8 10 14 26 13 38 5 41 -9 5z"/>
<path d="M8506 4025 c-9 -26 -7 -32 5 -12 6 10 9 21 6 23 -2 3 -7 -2 -11 -11z"/>
<path d="M8190 3989 c0 -5 5 -7 10 -4 6 3 10 8 10 11 0 2 -4 4 -10 4 -5 0 -10
-5 -10 -11z"/>
<path d="M8476 3955 c-3 -8 -1 -15 4 -15 6 0 10 7 10 15 0 8 -2 15 -4 15 -2 0
-6 -7 -10 -15z"/>
<path d="M8143 3850 c3 -12 22 -15 93 -16 l89 0 -85 3 c-50 2 -88 9 -93 16 -6
8 -7 8 -4 -3z"/>
<path d="M8358 3833 c7 -3 16 -2 19 1 4 3 -2 6 -13 5 -11 0 -14 -3 -6 -6z"/>
</g>
</svg>
